# xmcd
#
# Track frame offsets:
#	150
#	17290
#	28667
#	39622
#	51407
#	64420
#	79382
#	91922
#	103597
#	116167
#
# Disc length: 1730
#
# Revision: 3
# Processed by: cddbd v1.5.1PL0 Copyright (c) Steve Scherf et al.
# Submitted via: EasyCD 2.21 - (C) 1996 Greg Leichner
# Normalized: r1:TDELIM( - ),TSWAP
#
DISCID=8206c00a
DTITLE=Various Artist - Country's Greatest Hits:  Blazin' Country, Vol. 1
DYEAR=1900
DGENRE=
TTITLE0=Dwight Yoakam - I Sang Dixie
TTITLE1=Ricky Van Shelton - Hole In My Picket
TTITLE2=Rodney Crowell - Above and Beyond
TTITLE3=Marty Stuart - Hillbilly Rock
TTITLE4=Sawyer Brown - The Race is On
TTITLE5=Exile - Keep It in the Middle of the Road
TTITLE6=Vern Gosdin - I'm Still Crazy
TTITLE7=Nitty Gritty Dirt Band - When It's Gone
TTITLE8=Eddy Raven - Bayou Boys
TTITLE9=Billy Joe Royal - Love Has No Right
EXTD=
EXTT0=
EXTT1=
EXTT2=
EXTT3=
EXTT4=
EXTT5=
EXTT6=
EXTT7=
EXTT8=
EXTT9=
PLAYORDER=
